<?xml version="1.0" encoding="UTF-8"?>
<svg width="860.23" height="120" version="1.1" viewBox="0 0 227.60304 31.750001" xmlns="http://www.w3.org/2000/svg" xmlns:cc="http://creativecommons.org/ns#" xmlns:dc="http://purl.org/dc/elements/1.1/" xmlns:rdf="http://www.w3.org/1999/02/22-rdf-syntax-ns#">
	<metadata>
		<RDF>
			<Work rdf:about="">
				<format>
					image/svg+xml
				</format>
				<type rdf:resource="http://purl.org/dc/dcmitype/StillImage" />
				<title />
			</Work>
		</RDF>
	</metadata>
	<g>
		<text x="15.463864" y="195.70406" font-family="sans-serif" font-size="10.583px" font-weight="bold" stroke-width=".26458" style="line-height:1.25" xml:space="preserve">
			<tspan x="15.463864" y="195.70406" stroke-width=".26458" />
		</text>
		<g transform="matrix(1.3552 0 0 1.3552 -9.3591 -264.53)">
			<path d="m8.9155 197.19-0.02484 19.453" fill="none" stroke="#FFF" stroke-linecap="round" stroke-linejoin="round" stroke-width="3.9688" />
			<path d="m27.042 211.45a5.1895 5.1895 0 0 1 -2.5947 4.4942 5.1895 5.1895 0 0 1 -5.1895 0 5.1895 5.1895 0 0 1 -2.5947 -4.4942" fill="none" stop-color="#FFFFFF" stroke="#FFF" stroke-linecap="round" stroke-linejoin="round" stroke-width="3.9688" />
			<path d="m16.653 211.38v-6.2317" fill="none" stroke="#FFF" stroke-linecap="round" stroke-width="3.9688" />
			<path d="m27.046 211.38v-6.2317" fill="none" stroke="#FFF" stroke-linecap="round" stroke-width="3.9688" />
			<circle cx="40.545" cy="210.9" r="5.7436" fill="none" stop-color="#FFFFFF" stroke="#FFF" stroke-linecap="round" stroke-linejoin="round" stroke-width="3.9688" />
			<path d="m46.289 216.64v-5.5396" fill="none" stroke="#FFF" stroke-linecap="round" stroke-width="3.9688" />
			<path transform="scale(-1)" d="m-54.048-210.34a5.1895 5.1895 0 0 1 -2.5947 4.4942 5.1895 5.1895 0 0 1 -5.1895 0 5.1895 5.1895 0 0 1 -2.5947 -4.4942" fill="none" stop-color="#FFFFFF" stroke="#FFF" stroke-linecap="round" stroke-linejoin="round" stroke-width="3.9688" />
			<path d="m64.437 210.41v6.2317" fill="none" stroke="#FFF" stroke-linecap="round" stroke-width="3.9688" />
			<path d="m54.043 210.41v6.2317" fill="none" stroke="#FFF" stroke-linecap="round" stroke-width="3.9688" />
			<path d="m54.043 205.15v5.5396" fill="none" stroke="#FFF" stroke-linecap="round" stroke-width="3.9688" />
			<path d="m72.215 197.19-0.0248 19.453" fill="none" stroke="#FFF" stroke-linecap="round" stroke-linejoin="round" stroke-width="3.9688" />
			<path d="m90.358 211.46a5.1895 5.1895 0 0 1 -2.5947 4.4942 5.1895 5.1895 0 0 1 -5.1895 0 5.1895 5.1895 0 0 1 -2.5947 -4.4942" fill="none" stop-color="#FFFFFF" stroke="#FFF" stroke-linecap="round" stroke-linejoin="round" stroke-width="3.9688" />
			<path d="m79.969 211.39v-6.2317" fill="none" stroke="#FFF" stroke-linecap="round" stroke-width="3.9688" />
			<path d="m90.362 211.39v-6.2317" fill="none" stroke="#FFF" stroke-linecap="round" stroke-width="3.9688" />
			<circle cx="129.37" cy="210.9" r="5.7436" fill="none" stop-color="#FFFFFF" stroke="#FFF" stroke-linecap="round" stroke-linejoin="round" stroke-width="3.9688" />
			<path d="m135.12 210.51v-13.314" fill="none" stroke="#FFF" stroke-linecap="round" stroke-width="3.9688" />
			<circle cx="115.67" cy="216.29" r="2.3327" stop-color="#FFFFFF" fill="#FFF" />
			<path d="m151.07 216.09a5.7436 5.7436 0 0 1 -6.7434 -1.3688 5.7436 5.7436 0 0 1 -0.59114 -6.8555 5.7436 5.7436 0 0 1 6.4096 -2.5029 5.7436 5.7436 0 0 1 4.211 5.442" fill="none" stop-color="#FFFFFF" stroke="#FFF" stroke-linecap="round" stroke-linejoin="round" stroke-width="3.9688" />
			<path d="m153.72 210.8-10.853-7e-3" fill="none" stroke="#FFF" stroke-linecap="round" stroke-linejoin="round" stroke-width="3.9688" />
			<path d="m162.11 205.16 5.4094 11.48 5.3573-11.484" fill="none" stroke="#FFF" stroke-linecap="round" stroke-linejoin="round" stroke-width="3.9688" />
			<path d="m98.122 205.13h7.6893l-7.6953 11.519h7.6893" fill="none" stroke="#FFF" stroke-linecap="round" stroke-linejoin="round" stroke-width="3.9688" />
		</g>
	</g>
</svg>
