<?xml version="1.0" encoding="UTF-8" standalone="no"?>
<svg
   xmlns:dc="http://purl.org/dc/elements/1.1/"
   xmlns:cc="http://creativecommons.org/ns#"
   xmlns:rdf="http://www.w3.org/1999/02/22-rdf-syntax-ns#"
   xmlns:svg="http://www.w3.org/2000/svg"
   xmlns="http://www.w3.org/2000/svg"
   xmlns:sodipodi="http://sodipodi.sourceforge.net/DTD/sodipodi-0.dtd"
   xmlns:inkscape="http://www.inkscape.org/namespaces/inkscape"
   width="360.00201"
   height="408.28201"
   id="svg2"
   version="1.1"
   inkscape:version="1.0.1 (3bc2e813f5, 2020-09-07)"
   sodipodi:docname="CSS3_and_HTML5_logos_and_wordmarks (copy 1).svg">
  <defs
     id="defs4" />
  <sodipodi:namedview
     id="base"
     pagecolor="#ffffff"
     bordercolor="#666666"
     borderopacity="1.0"
     inkscape:pageopacity="0.0"
     inkscape:pageshadow="2"
     inkscape:zoom="0.7"
     inkscape:cx="317.90453"
     inkscape:cy="279.15323"
     inkscape:document-units="px"
     inkscape:current-layer="layer1"
     showgrid="false"
     fit-margin-top="0"
     fit-margin-left="0"
     fit-margin-right="0"
     fit-margin-bottom="0"
     inkscape:window-width="1366"
     inkscape:window-height="716"
     inkscape:window-x="0"
     inkscape:window-y="0"
     inkscape:window-maximized="1"
     inkscape:document-rotation="0" />
  <metadata
     id="metadata7">
    <rdf:RDF>
      <cc:Work
         rdf:about="">
        <dc:format>image/svg+xml</dc:format>
        <dc:type
           rdf:resource="http://purl.org/dc/dcmitype/StillImage" />
        <dc:title></dc:title>
      </cc:Work>
    </rdf:RDF>
  </metadata>
  <g
     inkscape:label="Calque 1"
     inkscape:groupmode="layer"
     id="layer1"
     transform="translate(-170.06157,-270.18109)">
    <g
       id="g3013"
       transform="matrix(0.99246718,0,0,0.99246718,95.990769,170.3199)"
       style="fill:#ffffff">
      <path
         id="polygon2989"
         style="fill:#ffffff"
         d="M 0,100.61914 33.011719,470.87695 181.14453,512 329.6875,470.81836 362.73438,100.61914 Z m 67.498047,75.68555 h 113.712893 0.15625 113.59765 l -8.19922,91.91211 -1.10742,12.19336 -10.67187,119.55273 -0.68164,7.67188 -92.9375,25.75781 v 0.006 l -0.20899,0.0586 -93.019528,-25.82226 -6.363281,-71.30274 h 21.009769 24.57617 l 3.23242,36.21875 50.57422,13.6543 0.043,-0.0117 v -0.002 l 50.64648,-13.66993 5.27149,-58.89453 H 181.36719 79.746094 l -4.06836,-45.41015 h 105.689456 59.69922 l 4.13086,-46.5 H 181.36719 181.21094 71.626953 Z"
         transform="translate(74.632999)" />
    </g>
  </g>
</svg>
