<?xml version="1.0" encoding="UTF-8" standalone="no"?>
<svg
   xmlns:dc="http://purl.org/dc/elements/1.1/"
   xmlns:cc="http://creativecommons.org/ns#"
   xmlns:rdf="http://www.w3.org/1999/02/22-rdf-syntax-ns#"
   xmlns:svg="http://www.w3.org/2000/svg"
   xmlns="http://www.w3.org/2000/svg"
   xmlns:sodipodi="http://sodipodi.sourceforge.net/DTD/sodipodi-0.dtd"
   xmlns:inkscape="http://www.inkscape.org/namespaces/inkscape"
   width="360"
   height="408.28201"
   id="svg2"
   version="1.1"
   inkscape:version="1.0.1 (3bc2e813f5, 2020-09-07)"
   sodipodi:docname="html.svg">
  <defs
     id="defs4" />
  <sodipodi:namedview
     id="base"
     pagecolor="#ffffff"
     bordercolor="#666666"
     borderopacity="1.0"
     inkscape:pageopacity="0.0"
     inkscape:pageshadow="2"
     inkscape:zoom="0.35"
     inkscape:cx="436.60633"
     inkscape:cy="123.92118"
     inkscape:document-units="px"
     inkscape:current-layer="layer1"
     showgrid="false"
     fit-margin-top="0"
     fit-margin-left="0"
     fit-margin-right="0"
     fit-margin-bottom="0"
     inkscape:window-width="1366"
     inkscape:window-height="716"
     inkscape:window-x="0"
     inkscape:window-y="0"
     inkscape:window-maximized="1"
     inkscape:document-rotation="0" />
  <metadata
     id="metadata7">
    <rdf:RDF>
      <cc:Work
         rdf:about="">
        <dc:format>image/svg+xml</dc:format>
        <dc:type
           rdf:resource="http://purl.org/dc/dcmitype/StillImage" />
        <dc:title></dc:title>
      </cc:Work>
    </rdf:RDF>
  </metadata>
  <g
     inkscape:label="Calque 1"
     inkscape:groupmode="layer"
     id="layer1"
     transform="translate(-170.06157,-270.18109)">
    <g
       id="g3054"
       transform="matrix(0.99246712,0,0,0.99246718,95.989938,170.3199)"
       style="fill:#ffffff">
      <path
         id="polygon3028"
         style="fill:#ffffff"
         d="M 428.57227,100.61914 461.58203,470.87695 609.7168,512 758.25977,470.81836 791.30469,100.61914 Z m 67.49804,75.68555 h 113.71094 0.15625 113.59766 l -1.08594,12.18359 -2.06836,23.02149 -0.91211,10.20703 h -0.14453 -109.38672 -0.15625 -64.08203 l 4.14844,46.5 h 60.08984 93.16211 12.23828 l -1.10937,12.19336 -10.66993,119.55273 -0.68359,7.67188 -92.9375,25.75781 v 0.006 l -0.20898,0.0586 -93.01954,-25.82226 -6.36132,-71.30274 h 21.00976 24.57422 l 3.23438,36.21875 50.57421,13.6543 0.041,-0.0117 v -0.002 l 50.64648,-13.66993 5.27149,-58.89453 H 609.9375 508.31836 L 497.1582,188.48828 Z"
         transform="translate(-353.93843)" />
    </g>
  </g>
</svg>
