<?xml version="1.0" encoding="UTF-8" standalone="no"?>
<svg
   xmlns:dc="http://purl.org/dc/elements/1.1/"
   xmlns:cc="http://creativecommons.org/ns#"
   xmlns:rdf="http://www.w3.org/1999/02/22-rdf-syntax-ns#"
   xmlns:svg="http://www.w3.org/2000/svg"
   xmlns="http://www.w3.org/2000/svg"
   xmlns:sodipodi="http://sodipodi.sourceforge.net/DTD/sodipodi-0.dtd"
   xmlns:inkscape="http://www.inkscape.org/namespaces/inkscape"
   id="svg4525"
   viewBox="0 0 41.88718 47.605683"
   width="359.24301"
   height="408.28201"
   version="1.1"
   sodipodi:docname="js.svg"
   inkscape:version="1.0.1 (3bc2e813f5, 2020-09-07)">
  <metadata
     id="metadata14">
    <rdf:RDF>
      <cc:Work
         rdf:about="">
        <dc:format>image/svg+xml</dc:format>
        <dc:type
           rdf:resource="http://purl.org/dc/dcmitype/StillImage" />
        <dc:title />
      </cc:Work>
    </rdf:RDF>
  </metadata>
  <defs
     id="defs12" />
  <sodipodi:namedview
     pagecolor="#ffffff"
     bordercolor="#666666"
     borderopacity="1"
     objecttolerance="10"
     gridtolerance="10"
     guidetolerance="10"
     inkscape:pageopacity="0"
     inkscape:pageshadow="2"
     inkscape:window-width="1366"
     inkscape:window-height="716"
     id="namedview10"
     showgrid="false"
     inkscape:zoom="1.1834139"
     inkscape:cx="278.39568"
     inkscape:cy="182.59756"
     inkscape:window-x="0"
     inkscape:window-y="0"
     inkscape:window-maximized="1"
     inkscape:current-layer="svg4525"
     inkscape:document-rotation="0" />
  <style
     id="style2">.st0{fill:#d4b830}.st1,.st2{opacity:.986;fill:#ebebeb;fill-opacity:0;enable-background:new}.st2{fill-opacity:.9216}.st3{fill:#fdd83c}</style>
  <g
     id="g5193"
     transform="matrix(0.16336884,0,0,0.16336885,0.8165665,-18.526028)"
     style="fill:#ffffff">
    <path
       id="path5113"
       class="st0"
       d="M 18.8,375.4 -5,113.4 251.4,113.5 227.8,375.2 123,404.8 Z m 189.7,-14.3 19.9,-224.4 h -105 l 0.8,247.5 z M 113.6,169.6 H 88.1 l -0.3,134.3 -49.5,-13.5 0.1,30.7 75.2,20.3 z"
       style="fill:#ffffff" />
    <path
       id="path5159"
       class="st1"
       d="m 105.2,338.9 c -3.3,-1 -19.6,-5.4 -36.2,-9.9 l -30.1,-8.1 v -15.1 c 0,-14.8 0,-15.1 1.5,-14.6 0.8,0.3 11.8,3.3 24.4,6.8 l 22.9,6.3 0.2,-67 0.2,-67 h 25 v 85.2 c 0,67.7 -0.2,85.2 -0.9,85.2 -0.5,-0.1 -3.7,-0.9 -7,-1.8 z"
       style="fill:#ffffff" />
    <path
       id="path5117"
       class="st3"
       d="M 121.7214,132.6433 H 230.0786 L 209.54233,364.21811 121.7214,388.0567 Z m 82.24827,192.77262 7.12062,-86.58256 -52.63064,5.88224 v -46.2324 l 56.13935,-0.20639 2.27034,-31.57839 -84.72501,0.41279 1.13517,114.96183 51.18588,-8.77178 -0.72238,25.59294 -51.59867,13.72525 0.51599,31.37199 z"
       style="fill:#ffffff;stroke-width:1.03197" />
  </g>
</svg>
